<svg xmlns="http://www.w3.org/2000/svg" viewBox="0 0 90 61.626">
  <defs>
    <style>
      .cls-1 {
        fill: #f2b632;
      }

      .cls-2 {
        fill: #252839;
      }
    </style>
  </defs>
  <g id="Groupe_15" data-name="Groupe 15" transform="translate(0.023 0.025)">
    <path id="Tracé_161" data-name="Tracé 161" class="cls-1" d="M35.419,43.53l-.732,3.387H28L24.252,64.126h-6.59l6.59-30.573c-3.57.092-5.95,2.2-5.95,9.52a7.076,7.076,0,0,0,.641,3.112c-3.2,0-4.943-1.1-4.943-4.485,0-6.133,4.3-11.9,15.652-11.9,1.831,0,4.76.549,7.6.549a12.446,12.446,0,0,0,4.119-.549c-.641,1.922-.824,4.76-4.394,5.492a30.9,30.9,0,0,1-6.407-.915L28.646,43.53h6.774Z" transform="translate(-1.187 -2.525)"/>
    <path id="Tracé_162" data-name="Tracé 162" class="cls-2" d="M24.9,7.412l-5.95,25.63c6.59-.275,11.9-10.16,12.357-18.49C31.577,8.785,29.472,3.934,23.8,3.568,13.179,3.018,6.589,9.792,5.948,21.6c-.183,3.936.641,4.577.641,5.309C2.1,26.726-.277,24.621,0,19.037.547,8.694,13-.551,23.889,0,34.6.547,38.9,8.053,38.443,16.016,37.985,25.811,30.3,36.429,18.58,35.788h-.366L13.087,57.665l-9.245-.458L15.193,8.419Z" transform="translate(0 0)"/>
    <path id="Tracé_163" data-name="Tracé 163" class="cls-1" d="M49.947,16.792l-2.014,9.337a3.434,3.434,0,0,0-.092.915c0,.732.366,1.19,1.1,1.19,1.1,0,1.831-1.19,2.2-2.563h1.19C50.771,30.156,48.3,30.7,46.835,30.7a2.473,2.473,0,0,1-2.655-2.563A4.881,4.881,0,0,1,40.061,30.7c-1.831,0-3.661-1.19-3.661-4.394,0-3.661,2.288-9.611,7.048-9.611,1.556,0,2.2.641,2.2,1.373v.183l.275-1.465h4.028Zm-9.52,9.062c0,2.105.915,2.105,1.373,2.105a2.774,2.774,0,0,0,2.288-2.38l1.281-6.224a1.03,1.03,0,0,0-1.1-1.007C41.984,18.348,40.428,23.29,40.428,25.853Z" transform="translate(-3.083 -1.416)"/>
    <path id="Tracé_164" data-name="Tracé 164" class="cls-1" d="M58.265,16.792,57.9,18.531a5.313,5.313,0,0,1,3.3-1.739,1.9,1.9,0,0,1,1.922,2.014A1.966,1.966,0,0,1,61.1,20.819c-1.556,0-.732-1.831-1.556-1.831s-1.281.458-2.014,1.007l-2.2,10.435H51.4L54.329,16.7h3.936Z" transform="translate(-4.353 -1.416)"/>
    <path id="Tracé_165" data-name="Tracé 165" class="cls-1" d="M70.831,10.8l-3.2,14.829a3.434,3.434,0,0,0-.092.915c0,.732.366,1.007,1.1,1.007,1.1,0,2.014-1.007,2.471-2.38H72.3c-1.556,4.485-4.3,5.034-5.767,5.034-1.648,0-2.929-1.007-2.929-3.3a12.507,12.507,0,0,1,.183-1.739l2.929-13.73Z" transform="translate(-5.386 -0.916)"/>
    <path id="Tracé_166" data-name="Tracé 166" class="cls-1" d="M77.441,28.3c2.2,0,3.478-1.19,4.851-2.746h.915c-1.556,2.563-3.936,5.034-7.506,5.034-2.563,0-4.3-1.281-4.3-4.394S73.231,16.4,78.814,16.4c2.471,0,3.021,1.281,3.021,2.655,0,3.2-3.021,5.584-6.316,5.767,0,.366-.092.732-.092,1.1C75.519,27.933,76.16,28.3,77.441,28.3Zm1.648-10.343c-1.373,0-2.746,2.929-3.3,5.675a4.725,4.725,0,0,0,4.028-4.577C79.73,18.414,79.547,17.956,79.089,17.956Z" transform="translate(-6.046 -1.39)"/>
    <path id="Tracé_167" data-name="Tracé 167" class="cls-1" d="M89.065,16.792,88.7,18.531a5.313,5.313,0,0,1,3.3-1.739,1.9,1.9,0,0,1,1.922,2.014A1.966,1.966,0,0,1,91.9,20.819c-1.556,0-.732-1.831-1.556-1.831s-1.281.458-2.014,1.007l-2.2,10.435H82.2L85.129,16.7h3.936Z" transform="translate(-6.96 -1.416)"/>
    <path id="Tracé_168" data-name="Tracé 168" class="cls-2" d="M39.365,40.292,39,42.031a5.313,5.313,0,0,1,3.3-1.739,1.9,1.9,0,0,1,1.922,2.014A1.966,1.966,0,0,1,42.2,44.319c-1.556,0-.732-1.831-1.556-1.831s-1.281.458-2.014,1.007l-2.2,10.435H32.5L35.429,40.2h3.936Z" transform="translate(-2.753 -3.405)"/>
    <path id="Tracé_169" data-name="Tracé 169" class="cls-2" d="M58.047,40.292l-2.014,9.337a3.434,3.434,0,0,0-.092.915c0,.732.366,1.19,1.1,1.19,1.1,0,1.831-1.19,2.2-2.563h1.19C58.871,53.656,56.4,54.2,54.935,54.2a2.473,2.473,0,0,1-2.655-2.563A4.881,4.881,0,0,1,48.161,54.2c-1.831,0-3.661-1.19-3.661-4.394,0-3.661,2.288-9.611,7.048-9.611,1.556,0,2.2.641,2.2,1.373v.183l.275-1.465h4.028Zm-9.52,9.153c0,2.105.915,2.105,1.373,2.105a2.774,2.774,0,0,0,2.288-2.38l1.281-6.224a1.03,1.03,0,0,0-1.1-1.007C50.084,41.848,48.528,46.791,48.528,49.445Z" transform="translate(-3.769 -3.405)"/>
    <path id="Tracé_170" data-name="Tracé 170" class="cls-2" d="M67.472,42.671c-1.007,0-1.739,1.19-2.105,2.563l-1.831,8.787H59.6l2.929-13.73h3.844L66.1,41.756A4.309,4.309,0,0,1,69.3,40.2a2.772,2.772,0,0,1,3.021,3.112c0,2.2-1.281,5.584-1.281,7.048,0,.732.275,1.19,1.1,1.19,1.19,0,1.739-1.007,2.288-2.38h1.19c-1.556,4.485-3.661,5.034-5.126,5.034a2.9,2.9,0,0,1-3.2-3.112c0-1.831,1.281-5.217,1.281-6.957C68.479,43.221,68.113,42.671,67.472,42.671Z" transform="translate(-5.047 -3.405)"/>
    <path id="Tracé_171" data-name="Tracé 171" class="cls-2" d="M83.738,42.655c0-.732-.275-1.1-.732-1.1-1.739,0-3.478,5.034-3.478,8.055,0,1.831.641,2.288,2.014,2.288,2.2,0,3.478-1.19,4.851-2.746h.915c-1.556,2.563-3.936,5.034-7.506,5.034-2.563,0-4.3-1.281-4.3-4.394,0-3.2,1.831-9.794,7.414-9.794,2.471,0,3.021,1.281,3.021,2.563,0,1.373-.641,2.014-1.465,2.014a1.311,1.311,0,0,1-.915-.366A10.192,10.192,0,0,0,83.738,42.655Z" transform="translate(-6.393 -3.388)"/>
    <path id="Tracé_172" data-name="Tracé 172" class="cls-2" d="M92.667,51.625a5.708,5.708,0,0,0,3.2-1.465,4.39,4.39,0,0,1-4.76,4.028c-2.563,0-4.211-1.281-4.211-4.394S88.639,40,94.314,40c2.471,0,3.021,1.281,3.021,2.655,0,3.2-3.021,5.584-6.316,5.767,0,.275-.092.549-.092.824C90.928,51.076,91.751,51.625,92.667,51.625ZM94.5,41.465c-1.373,0-2.746,3.021-3.3,5.675a4.581,4.581,0,0,0,4.028-4.577C95.23,41.922,95.047,41.465,94.5,41.465Z" transform="translate(-7.358 -3.388)"/>
  </g>
</svg>
